<?xml version="1.0" standalone="no"?>
<!DOCTYPE svg PUBLIC "-//W3C//DTD SVG 20010904//EN"
 "http://www.w3.org/TR/2001/REC-SVG-20010904/DTD/svg10.dtd">
<svg version="1.0" xmlns="http://www.w3.org/2000/svg"
 width="335.667590pt" height="72.000000pt" viewBox="0 0 335.667590 72.000000"
 preserveAspectRatio="xMidYMid meet">
<metadata>
Created by potrace 1.11, written by Peter Selinger 2001-2013
</metadata>
<g transform="translate(0.000000,72.000000) scale(0.009972,-0.009972)"
fill="#000000" stroke="none">
<path d="M4978 7049 c-129 -19 -188 -89 -188 -222 0 -86 30 -143 91 -174 65
-34 183 -43 542 -43 l317 0 0 -1545 0 -1544 -462 -3 c-420 -3 -467 -5 -503
-21 -79 -36 -124 -104 -125 -187 0 -96 37 -162 114 -203 l41 -22 1215 0 c958
0 1223 3 1251 13 75 27 109 90 109 207 0 93 -27 149 -91 185 l-44 25 -517 3
-518 3 0 1710 c0 1919 7 1759 -74 1802 -41 22 -46 22 -571 24 -291 0 -556 -3
-587 -8z"/>
<path d="M15003 7050 c-134 -20 -205 -113 -189 -249 10 -81 42 -131 104 -157
48 -20 179 -34 314 -34 l118 0 0 -1545 0 -1545 -113 0 c-133 0 -262 -15 -311
-35 -19 -8 -47 -31 -63 -52 -26 -34 -28 -43 -28 -128 0 -82 3 -95 27 -132 17
-26 45 -49 75 -64 47 -24 54 -24 381 -27 319 -3 335 -2 375 17 23 12 53 36 66
56 50 74 50 77 51 600 l1 490 135 122 136 122 444 -484 c244 -267 444 -486
444 -488 0 -3 -20 -12 -44 -21 -62 -24 -121 -69 -153 -117 -36 -55 -40 -162
-7 -206 30 -41 78 -70 135 -82 80 -17 953 -15 1012 3 119 36 175 138 147 270
-13 66 -38 99 -93 128 -37 20 -63 23 -227 27 l-186 6 -564 614 c-311 337 -565
616 -565 620 0 8 384 348 495 438 108 87 259 177 355 212 47 17 140 38 219 50
189 29 267 67 302 148 27 64 11 166 -34 216 -9 11 -35 29 -57 41 -39 21 -48
21 -545 21 -564 0 -562 0 -630 -70 -29 -30 -34 -43 -38 -93 -7 -94 44 -167
150 -218 l36 -17 -432 -361 -431 -362 -5 1107 c-5 1089 -5 1107 -25 1129 -46
52 -66 54 -410 56 -176 1 -343 -1 -372 -6z"/>
<path d="M30900 5959 c-421 -35 -769 -199 -1035 -489 -243 -265 -364 -598
-364 -1005 -1 -438 137 -789 415 -1054 113 -108 199 -169 334 -237 252 -127
491 -171 855 -161 181 6 236 12 395 42 208 39 222 42 375 92 280 91 485 189
586 280 66 59 92 115 93 193 1 57 -3 72 -26 106 -42 59 -90 87 -159 92 -72 5
-153 -20 -394 -123 -456 -195 -590 -233 -862 -242 -316 -11 -554 52 -747 198
-177 135 -300 374 -323 627 l-6 72 1116 0 c726 0 1143 4 1194 11 170 22 215
76 222 261 8 250 -65 498 -209 714 -74 109 -263 296 -380 374 -219 147 -447
224 -735 249 -135 12 -194 12 -345 0z m455 -452 c352 -94 590 -357 650 -714
l7 -43 -981 0 c-540 0 -981 2 -981 4 0 19 65 197 91 248 131 260 367 442 659
506 127 29 151 31 320 26 113 -2 165 -8 235 -27z"/>
<path d="M2425 5950 c-464 -53 -780 -245 -896 -545 -41 -104 -52 -189 -46
-334 9 -228 79 -378 238 -517 231 -200 562 -284 1131 -284 516 0 699 -78 738
-316 59 -352 -296 -579 -832 -533 -354 30 -659 172 -796 371 -16 24 -46 76
-67 117 -72 143 -121 184 -222 184 -81 -1 -138 -31 -173 -93 l-25 -45 0 -380
0 -380 26 -56 c31 -65 75 -103 140 -119 66 -17 150 7 268 76 l94 55 156 -35
c343 -76 518 -99 766 -99 208 -1 292 9 463 54 212 56 372 148 512 296 151 159
217 349 207 593 -13 307 -131 509 -377 644 -181 99 -432 149 -825 166 -385 16
-527 29 -663 60 -96 23 -148 47 -203 97 -123 111 -111 331 26 468 121 120 285
175 523 175 270 -1 451 -51 643 -180 35 -24 136 -117 225 -206 167 -170 214
-204 284 -204 46 0 111 31 138 65 49 62 57 119 57 415 0 313 -8 360 -71 430
-73 80 -160 79 -330 -6 l-111 -56 -119 32 c-282 74 -384 90 -599 95 -110 2
-236 0 -280 -5z"/>
<path d="M9007 5945 c-252 -27 -511 -96 -646 -172 -79 -44 -153 -111 -176
-159 -19 -40 -21 -123 -6 -181 23 -84 111 -163 183 -163 50 0 177 40 353 110
192 77 297 111 410 130 93 16 340 8 420 -14 259 -71 393 -254 412 -563 7 -107
10 -103 -86 -78 -341 88 -877 90 -1213 4 -548 -139 -845 -506 -815 -1004 16
-259 127 -478 321 -631 187 -148 399 -214 691 -214 396 0 748 135 1101 424
l31 25 17 -107 c19 -126 45 -184 104 -229 55 -41 99 -46 427 -41 289 4 306 8
362 72 42 47 57 96 50 171 -5 72 -25 112 -70 142 -48 33 -107 43 -279 50
l-158 6 0 751 c0 425 -5 784 -10 826 -43 328 -189 572 -426 711 -111 65 -183
91 -344 126 -96 21 -492 25 -653 8z m597 -1441 c113 -16 334 -68 349 -83 5 -5
7 -98 5 -207 l-3 -199 -37 -65 c-108 -190 -391 -364 -713 -437 -129 -29 -351
-36 -445 -14 -194 45 -336 152 -394 295 -53 132 -29 307 58 423 181 241 662
358 1180 287z"/>
<path d="M12729 5946 c-185 -28 -310 -67 -464 -142 -294 -142 -535 -382 -683
-679 -151 -305 -180 -744 -71 -1103 124 -407 485 -775 904 -922 207 -72 375
-95 629 -87 303 10 528 66 801 197 183 89 311 174 411 274 93 94 133 165 141
253 7 79 -31 154 -99 196 -105 65 -215 32 -429 -130 -225 -170 -389 -252 -599
-300 -100 -23 -137 -26 -290 -26 -158 -1 -185 2 -275 26 -331 88 -579 324
-675 642 -38 126 -45 179 -44 350 1 149 4 182 26 266 92 343 347 591 704 684
164 42 423 45 569 6 238 -64 403 -195 573 -456 136 -209 184 -248 305 -247 82
0 150 30 184 81 41 60 46 120 40 516 -5 404 -10 441 -64 506 -36 43 -80 59
-158 59 -143 0 -213 -43 -236 -144 l-12 -55 -47 24 c-157 79 -352 146 -540
186 -123 25 -173 31 -330 34 -123 3 -213 0 -271 -9z"/>
<path d="M23700 5944 c-356 -39 -637 -134 -765 -258 -62 -61 -79 -106 -73
-190 12 -140 116 -239 234 -221 56 8 178 50 324 110 254 105 383 136 571 136
159 -1 258 -20 367 -72 184 -88 276 -254 297 -530 l6 -87 -82 20 c-408 94
-885 96 -1241 4 -162 -43 -283 -95 -403 -176 -242 -163 -367 -374 -395 -667
-25 -269 52 -515 218 -694 129 -138 278 -226 467 -275 124 -32 372 -44 518
-25 309 41 610 174 864 382 80 66 77 68 88 -36 14 -131 48 -203 122 -254 l38
-26 315 0 c311 0 316 0 363 24 30 15 58 38 75 64 24 37 27 50 27 131 0 80 -3
95 -24 125 -45 63 -152 90 -363 91 l-106 0 -5 768 c-5 803 -7 836 -52 1002
-23 85 -82 212 -133 286 -48 71 -158 178 -229 223 -115 72 -291 130 -463 151
-115 14 -407 11 -560 -6z m507 -1429 c94 -7 273 -42 381 -74 l72 -22 0 -157
c-1 -186 -14 -258 -63 -338 -106 -175 -406 -349 -712 -414 -121 -26 -346 -31
-440 -11 -104 23 -222 86 -290 155 -95 96 -132 196 -122 336 20 297 339 498
842 530 118 7 167 6 332 -5z"/>
<path d="M28440 5953 c-384 -41 -727 -246 -1068 -638 l-52 -60 0 268 c0 297
-3 312 -63 344 -29 16 -70 18 -462 18 -420 0 -431 0 -470 -21 -22 -12 -48 -30
-57 -41 -53 -58 -65 -188 -25 -264 45 -85 145 -109 455 -109 l162 0 0 -964 0
-965 -307 -3 c-288 -3 -311 -4 -353 -24 -77 -36 -120 -105 -120 -194 0 -86 40
-153 114 -193 l41 -22 1090 0 1090 0 49 25 c61 31 86 75 93 163 9 110 -22 178
-100 220 -42 22 -46 22 -589 25 l-548 3 0 622 0 623 135 141 c349 365 621 531
900 550 116 7 164 -6 358 -99 175 -84 223 -93 305 -58 60 26 125 92 155 158
29 63 27 167 -3 234 -55 124 -213 222 -414 257 -56 10 -238 12 -316 4z"/>
<path d="M18500 5881 c-70 -22 -120 -63 -141 -116 -16 -43 -14 -163 5 -207 28
-66 96 -101 215 -110 l35 -3 332 -1060 c368 -1173 378 -1204 405 -1257 29 -56
79 -109 124 -129 46 -21 167 -25 229 -8 54 15 112 73 139 139 12 30 108 371
212 758 105 386 192 702 195 702 3 0 86 -280 184 -622 99 -343 194 -670 212
-728 61 -194 133 -260 282 -260 41 0 93 6 116 12 57 17 118 81 146 154 12 32
174 563 359 1178 l336 1119 82 17 c138 27 178 76 178 215 -1 94 -26 152 -85
188 -35 22 -37 22 -540 22 -497 0 -506 0 -552 -22 -34 -15 -52 -32 -66 -60
-44 -88 -35 -216 20 -278 46 -53 103 -66 319 -74 l186 -6 -242 -881 c-133
-485 -244 -887 -247 -894 -2 -7 -86 261 -186 596 -101 335 -194 640 -208 677
-65 172 -153 236 -306 224 -114 -10 -187 -64 -226 -169 -10 -29 -104 -340
-207 -691 -104 -350 -192 -634 -196 -630 -5 7 -509 1753 -509 1766 0 2 87 7
193 10 213 5 275 18 319 64 44 47 58 87 58 160 0 96 -28 149 -95 183 l-50 25
-500 2 c-275 1 -511 -2 -525 -6z"/>
<path d="M100 2395 l0 -1195 9458 2 9457 3 3 93 3 92 -9366 0 -9365 0 0 1100
0 1100 -95 0 -95 0 0 -1195z"/>
<path d="M19414 1982 c-55 -44 -59 -109 -10 -158 l34 -34 126 0 126 0 0 -464
0 -465 -176 -3 -176 -3 -29 -33 c-40 -45 -40 -99 0 -144 l29 -33 444 -3 c506
-3 500 -3 527 73 13 37 12 45 -4 79 -28 58 -57 66 -240 66 l-155 0 0 570 0
570 -237 0 c-210 0 -240 -2 -259 -18z"/>
<path d="M22490 1885 l0 -115 125 0 125 0 0 115 0 115 -125 0 -125 0 0 -115z"/>
<path d="M25467 1600 c-27 -10 -73 -37 -103 -60 l-54 -41 0 52 0 52 -133 -5
c-152 -6 -184 -16 -209 -68 -34 -69 17 -150 95 -150 l27 0 0 -260 0 -260 -30
0 c-70 0 -130 -51 -130 -110 0 -34 28 -79 61 -95 25 -14 63 -16 221 -13 l190
3 29 33 c63 70 22 168 -74 179 l-47 6 0 203 0 202 53 46 c78 66 133 88 223 88
85 -1 135 -20 168 -65 19 -26 21 -45 24 -251 l4 -223 -38 -7 c-54 -11 -82 -33
-95 -75 -16 -53 8 -107 55 -126 41 -18 318 -21 360 -5 14 5 35 24 47 42 42 67
4 149 -75 163 l-34 7 -5 241 c-2 134 -10 258 -16 277 -31 100 -117 183 -229
219 -83 28 -217 28 -285 1z"/>
<path d="M22355 1593 c-62 -7 -76 -14 -95 -46 -31 -50 -26 -93 14 -133 l34
-34 126 0 126 0 0 -259 0 -260 -176 -3 -176 -3 -29 -33 c-40 -45 -40 -99 0
-144 l29 -33 444 -3 c506 -3 500 -3 527 73 13 37 12 45 -4 79 -28 58 -57 66
-240 66 l-155 0 0 370 0 370 -197 -1 c-109 -1 -211 -4 -228 -6z"/>
<path d="M27880 1593 c-59 -9 -72 -15 -90 -46 -31 -50 -26 -93 14 -133 31 -31
40 -34 90 -34 l56 0 0 -238 c0 -264 7 -307 60 -380 38 -53 96 -95 169 -123 44
-18 78 -23 156 -23 87 0 107 3 155 25 30 14 75 43 100 64 l45 38 3 -52 3 -51
129 0 c71 0 140 4 154 10 40 15 68 67 62 115 -6 47 -39 81 -91 91 l-35 6 0
369 0 369 -147 -1 c-190 0 -240 -8 -270 -43 -35 -42 -32 -105 8 -145 29 -29
35 -31 110 -31 l79 0 0 -199 0 -199 -65 -60 c-48 -45 -79 -65 -117 -77 -98
-29 -195 -15 -251 35 l-32 28 -3 346 -3 346 -132 -1 c-73 -1 -143 -3 -157 -6z"/>
<path d="M30805 1591 c-80 -15 -105 -41 -105 -111 0 -48 32 -87 80 -96 19 -4
83 -52 170 -126 l141 -119 -48 -43 c-199 -178 -270 -236 -295 -241 -16 -4 -42
-18 -58 -32 -26 -21 -30 -32 -30 -74 0 -53 19 -81 66 -99 42 -16 359 -13 399
4 75 32 85 139 18 181 -18 11 -31 23 -30 26 1 4 35 34 75 68 64 52 76 59 91
48 52 -37 141 -111 141 -116 -1 -3 -15 -15 -33 -26 -61 -39 -61 -130 2 -172
32 -22 44 -23 211 -23 100 0 190 5 208 11 39 13 64 52 66 99 1 52 -26 87 -80
103 -33 9 -86 48 -204 146 -88 74 -160 135 -160 137 0 2 65 58 144 124 89 74
152 120 166 120 35 0 90 62 90 101 0 45 -33 97 -67 106 -50 14 -325 9 -361 -6
-64 -27 -81 -107 -35 -162 l27 -32 -29 -24 c-17 -13 -46 -37 -66 -53 l-35 -29
-67 54 c-58 46 -65 54 -51 66 51 42 54 116 5 163 -28 27 -32 28 -167 31 -77 2
-157 1 -179 -4z"/>
</g>
</svg>
