<svg xmlns="http://www.w3.org/2000/svg" viewBox="0 0 512 512"><defs><style>.A{fill:#bf616a;}.B{fill:#d8dee9;}.C{fill:#8fbcbb;}.D{fill:#ebcb8b;}.E{fill:#2e3440;}</style></defs><title>document-and-pen-1-filled</title><path class="A" d="M466.1,248.5l25.6-25.6a25.6,25.6,0,0,0-36.2-36.2l-25.6,25.6Z"/><path class="B" d="M64,499.2A51.26,51.26,0,0,1,12.8,448V64A51.26,51.26,0,0,1,64,12.8H250.84l146,146.1V448a51.26,51.26,0,0,1-51.2,51.2Z"/><path class="C" d="M307.2,153.6A51.26,51.26,0,0,1,256,102.4V18.12L391.14,153.6Z"/><path class="D" d="M422.09,220.49,274.48,368.09a25.6,25.6,0,0,0,36.21,36.21l147.6-147.61Z"/><path class="E" d="M482.65,250.43l18.1-18.1A38.4,38.4,0,1,0,446.45,178L409.6,214.87V153.6L256.14,0H64A64,64,0,0,0,0,64V448a64,64,0,0,0,64,64H345.6a64,64,0,0,0,64-64V323.48l55-55,9.05,9.05-18.1,18.11a12.8,12.8,0,1,0,18.1,18.1l27.16-27.16a12.81,12.81,0,0,0,0-18.1ZM268.8,49.08l91.49,91.72H307.2a38.44,38.44,0,0,1-38.4-38.4ZM384,448a38.44,38.44,0,0,1-38.4,38.4H64A38.44,38.44,0,0,1,25.6,448V64A38.44,38.44,0,0,1,64,25.6H243.2v76.8a64,64,0,0,0,64,64H384v74.07L265.43,359A38.29,38.29,0,0,0,258,402.63l-1.11,1.11c-13.83-14.77-27.31-21.32-40.88-19.65-13,1.59-20.82,10-27.08,16.84-4.74,5.15-7.83,8.33-11.32,8.76-1.54-.14-5.46-4.59-7.86-7.42-5.91-7-14-16.54-27.46-18.18-16.66-2-33,8-50.14,30.58a12.8,12.8,0,1,0,20.4,15.46c10.52-13.88,20.21-21.47,26.66-20.62,3.24.39,6.46,3.94,11,9.31,6,7,14,16.51,27,16.51a28.66,28.66,0,0,0,3.44-.21c13-1.58,20.81-10,27.07-16.83,4.75-5.16,7.84-8.34,11.33-8.77,6.42-.86,16.14,6.75,26.66,20.62a12.73,12.73,0,0,0,10.08,5c.23,0,.46,0,.69,0l.46,0a12.71,12.71,0,0,0,8.4-3.69l10.71-10.71a37.88,37.88,0,0,0,43.59-7.39L384,349.09Zm-82.36-52.76a12.8,12.8,0,0,1-18.1,0h0a12.82,12.82,0,0,1,0-18.09L428.35,232.33l18.1,18.1ZM464.55,232.33,461.26,229l-14.81-14.81,18.1-18.1a12.26,12.26,0,0,1,3.29-2.32,12.87,12.87,0,0,1,3.54-1.21,13.75,13.75,0,0,1,2.22-.23,13.93,13.93,0,0,1,2.31.25,12.38,12.38,0,0,1,4.22,1.54,12.83,12.83,0,0,1,2.51,20.06ZM89.6,192a12.8,12.8,0,0,1,12.8-12.8h77.18a12.8,12.8,0,0,1,0,25.6H102.4A12.8,12.8,0,0,1,89.6,192Zm0,51.2a12.8,12.8,0,0,1,12.8-12.8h154a12.8,12.8,0,0,1,0,25.6h-154A12.8,12.8,0,0,1,89.6,243.2Z"/></svg>
