<svg width="416" height="416" xmlns="http://www.w3.org/2000/svg" version="1.1"><rect x="0" y="0" width="416" height="416" stroke="none" stroke-width="0.0" stroke-opacity="1" fill="rgb(255,255,255)" fill-opacity="1"></rect>
<line x1="64" y1="88" x2="96" y2="88" stroke="rgb(0,0,0)" stroke-width="0.7" stroke-opacity="1.0"></line>
<line x1="104" y1="88" x2="144" y2="88" stroke="rgb(0,0,0)" stroke-width="0.7" stroke-opacity="1.0"></line>
<line x1="152" y1="88" x2="192" y2="88" stroke="rgb(0,0,0)" stroke-width="0.7" stroke-opacity="1.0"></line>
<line x1="200" y1="88" x2="232" y2="88" stroke="rgb(0,0,0)" stroke-width="0.7" stroke-opacity="1.0"></line>
<line x1="240" y1="88" x2="272" y2="88" stroke="rgb(0,0,0)" stroke-width="0.7" stroke-opacity="1.0"></line>
<line x1="64" y1="200" x2="96" y2="200" stroke="rgb(0,0,0)" stroke-width="0.7" stroke-opacity="1.0"></line>
<line x1="104" y1="200" x2="144" y2="200" stroke="rgb(0,0,0)" stroke-width="0.7" stroke-opacity="1.0"></line>
<line x1="152" y1="200" x2="192" y2="200" stroke="rgb(0,0,0)" stroke-width="0.7" stroke-opacity="1.0"></line>
<line x1="200" y1="200" x2="232" y2="200" stroke="rgb(0,0,0)" stroke-width="0.7" stroke-opacity="1.0"></line>
<line x1="240" y1="200" x2="272" y2="200" stroke="rgb(0,0,0)" stroke-width="0.7" stroke-opacity="1.0"></line>
<line x1="64" y1="328" x2="96" y2="328" stroke="rgb(0,0,0)" stroke-width="0.7" stroke-opacity="1.0"></line>
<line x1="104" y1="328" x2="144" y2="328" stroke="rgb(0,0,0)" stroke-width="0.7" stroke-opacity="1.0"></line>
<line x1="152" y1="328" x2="192" y2="328" stroke="rgb(0,0,0)" stroke-width="0.7" stroke-opacity="1.0"></line>
<line x1="200" y1="328" x2="232" y2="328" stroke="rgb(0,0,0)" stroke-width="0.7" stroke-opacity="1.0"></line>
<line x1="148" y1="128" x2="148" y2="192" stroke="rgb(0,0,0)" stroke-width="0.7" stroke-opacity="1.0"></line>
<line x1="148" y1="240" x2="148" y2="320" stroke="rgb(0,0,0)" stroke-width="0.7" stroke-opacity="1.0"></line>
<line x1="60" y1="64" x2="60" y2="80" stroke="rgb(0,0,0)" stroke-width="0.7" stroke-opacity="1.0"></line>
<line x1="100" y1="64" x2="100" y2="80" stroke="rgb(0,0,0)" stroke-width="0.7" stroke-opacity="1.0"></line>
<line x1="196" y1="64" x2="196" y2="80" stroke="rgb(0,0,0)" stroke-width="0.7" stroke-opacity="1.0"></line>
<line x1="236" y1="64" x2="236" y2="80" stroke="rgb(0,0,0)" stroke-width="0.7" stroke-opacity="1.0"></line>
<line x1="276" y1="64" x2="276" y2="80" stroke="rgb(0,0,0)" stroke-width="0.7" stroke-opacity="1.0"></line>
<line x1="148" y1="96" x2="148" y2="112" stroke="rgb(0,0,0)" stroke-width="0.7" stroke-opacity="1.0"></line>
<line x1="148" y1="208" x2="148" y2="224" stroke="rgb(0,0,0)" stroke-width="0.7" stroke-opacity="1.0"></line>
<line x1="60" y1="304" x2="60" y2="320" stroke="rgb(0,0,0)" stroke-width="0.7" stroke-opacity="1.0"></line>
<line x1="100" y1="304" x2="100" y2="320" stroke="rgb(0,0,0)" stroke-width="0.7" stroke-opacity="1.0"></line>
<line x1="196" y1="304" x2="196" y2="320" stroke="rgb(0,0,0)" stroke-width="0.7" stroke-opacity="1.0"></line>
<line x1="236" y1="304" x2="236" y2="320" stroke="rgb(0,0,0)" stroke-width="0.7" stroke-opacity="1.0"></line>
<line x1="148" y1="336" x2="148" y2="352" stroke="rgb(0,0,0)" stroke-width="0.7" stroke-opacity="1.0"></line>
<line x1="112" y1="32" x2="104" y2="48" stroke="rgb(0,0,0)" stroke-width="0.7" stroke-opacity="1.0"></line>
<line x1="112" y1="160" x2="104" y2="176" stroke="rgb(0,0,0)" stroke-width="0.7" stroke-opacity="1.0"></line>
<line x1="112" y1="272" x2="104" y2="288" stroke="rgb(0,0,0)" stroke-width="0.7" stroke-opacity="1.0"></line>
<line x1="136" y1="368" x2="128" y2="384" stroke="rgb(0,0,0)" stroke-width="0.7" stroke-opacity="1.0"></line>
<line x1="88" y1="32" x2="96" y2="48" stroke="rgb(0,0,0)" stroke-width="0.7" stroke-opacity="1.0"></line>
<line x1="88" y1="160" x2="96" y2="176" stroke="rgb(0,0,0)" stroke-width="0.7" stroke-opacity="1.0"></line>
<line x1="88" y1="272" x2="96" y2="288" stroke="rgb(0,0,0)" stroke-width="0.7" stroke-opacity="1.0"></line>
<line x1="100" y1="88" x2="96" y2="88" stroke="rgb(0,0,0)" stroke-width="0.7" stroke-opacity="1.0"></line>
<line x1="100" y1="88" x2="100" y2="80" stroke="rgb(0,0,0)" stroke-width="0.7" stroke-opacity="1.0"></line>
<line x1="100" y1="88" x2="104" y2="88" stroke="rgb(0,0,0)" stroke-width="0.7" stroke-opacity="1.0"></line>
<line x1="196" y1="88" x2="192" y2="88" stroke="rgb(0,0,0)" stroke-width="0.7" stroke-opacity="1.0"></line>
<line x1="196" y1="88" x2="196" y2="80" stroke="rgb(0,0,0)" stroke-width="0.7" stroke-opacity="1.0"></line>
<line x1="196" y1="88" x2="200" y2="88" stroke="rgb(0,0,0)" stroke-width="0.7" stroke-opacity="1.0"></line>
<line x1="236" y1="88" x2="232" y2="88" stroke="rgb(0,0,0)" stroke-width="0.7" stroke-opacity="1.0"></line>
<line x1="236" y1="88" x2="236" y2="80" stroke="rgb(0,0,0)" stroke-width="0.7" stroke-opacity="1.0"></line>
<line x1="236" y1="88" x2="240" y2="88" stroke="rgb(0,0,0)" stroke-width="0.7" stroke-opacity="1.0"></line>
<line x1="100" y1="200" x2="96" y2="200" stroke="rgb(0,0,0)" stroke-width="0.7" stroke-opacity="1.0"></line>
<line x1="100" y1="200" x2="104" y2="200" stroke="rgb(0,0,0)" stroke-width="0.7" stroke-opacity="1.0"></line>
<line x1="148" y1="200" x2="144" y2="200" stroke="rgb(0,0,0)" stroke-width="0.7" stroke-opacity="1.0"></line>
<line x1="148" y1="200" x2="148" y2="192" stroke="rgb(0,0,0)" stroke-width="0.7" stroke-opacity="1.0"></line>
<line x1="148" y1="200" x2="152" y2="200" stroke="rgb(0,0,0)" stroke-width="0.7" stroke-opacity="1.0"></line>
<line x1="148" y1="200" x2="148" y2="208" stroke="rgb(0,0,0)" stroke-width="0.7" stroke-opacity="1.0"></line>
<line x1="196" y1="200" x2="192" y2="200" stroke="rgb(0,0,0)" stroke-width="0.7" stroke-opacity="1.0"></line>
<line x1="196" y1="200" x2="200" y2="200" stroke="rgb(0,0,0)" stroke-width="0.7" stroke-opacity="1.0"></line>
<line x1="236" y1="200" x2="232" y2="200" stroke="rgb(0,0,0)" stroke-width="0.7" stroke-opacity="1.0"></line>
<line x1="236" y1="200" x2="240" y2="200" stroke="rgb(0,0,0)" stroke-width="0.7" stroke-opacity="1.0"></line>
<line x1="100" y1="328" x2="96" y2="328" stroke="rgb(0,0,0)" stroke-width="0.7" stroke-opacity="1.0"></line>
<line x1="100" y1="328" x2="100" y2="320" stroke="rgb(0,0,0)" stroke-width="0.7" stroke-opacity="1.0"></line>
<line x1="100" y1="328" x2="104" y2="328" stroke="rgb(0,0,0)" stroke-width="0.7" stroke-opacity="1.0"></line>
<line x1="148" y1="328" x2="144" y2="328" stroke="rgb(0,0,0)" stroke-width="0.7" stroke-opacity="1.0"></line>
<line x1="148" y1="328" x2="148" y2="320" stroke="rgb(0,0,0)" stroke-width="0.7" stroke-opacity="1.0"></line>
<line x1="148" y1="328" x2="152" y2="328" stroke="rgb(0,0,0)" stroke-width="0.7" stroke-opacity="1.0"></line>
<line x1="148" y1="328" x2="148" y2="336" stroke="rgb(0,0,0)" stroke-width="0.7" stroke-opacity="1.0"></line>
<line x1="196" y1="328" x2="192" y2="328" stroke="rgb(0,0,0)" stroke-width="0.7" stroke-opacity="1.0"></line>
<line x1="196" y1="328" x2="196" y2="320" stroke="rgb(0,0,0)" stroke-width="0.7" stroke-opacity="1.0"></line>
<line x1="196" y1="328" x2="200" y2="328" stroke="rgb(0,0,0)" stroke-width="0.7" stroke-opacity="1.0"></line>
<path d="M 60,80 Q 60,88 64,88" stroke="rgb(0,0,0)" stroke-width="0.7" stroke-opacity="1.0" fill="none"></path>
<path d="M 272,88 Q 276,88 276,80" stroke="rgb(0,0,0)" stroke-width="0.7" stroke-opacity="1.0" fill="none"></path>
<path d="M 144,88 Q 148,88 152,88" stroke="rgb(0,0,0)" stroke-width="0.7" stroke-opacity="1.0" fill="none"></path>
<path d="M 144,88 Q 148,88 148,96" stroke="rgb(0,0,0)" stroke-width="0.7" stroke-opacity="1.0" fill="none"></path>
<path d="M 152,88 Q 148,88 148,96" stroke="rgb(0,0,0)" stroke-width="0.7" stroke-opacity="1.0" fill="none"></path>
<path d="M 60,320 Q 60,328 64,328" stroke="rgb(0,0,0)" stroke-width="0.7" stroke-opacity="1.0" fill="none"></path>
<path d="M 232,328 Q 236,328 236,320" stroke="rgb(0,0,0)" stroke-width="0.7" stroke-opacity="1.0" fill="none"></path>
<text x="64" y="28" font-family="monospace" fill="rgb(0,0,0)" fill-opacity="1.0" font-size="10">s</text>
<text x="72" y="28" font-family="monospace" fill="rgb(0,0,0)" fill-opacity="1.0" font-size="10">u</text>
<text x="80" y="28" font-family="monospace" fill="rgb(0,0,0)" fill-opacity="1.0" font-size="10">b</text>
<text x="88" y="28" font-family="monospace" fill="rgb(0,0,0)" fill-opacity="1.0" font-size="10">1</text>
<text x="104" y="28" font-family="monospace" fill="rgb(0,0,0)" fill-opacity="1.0" font-size="10">s</text>
<text x="112" y="28" font-family="monospace" fill="rgb(0,0,0)" fill-opacity="1.0" font-size="10">u</text>
<text x="120" y="28" font-family="monospace" fill="rgb(0,0,0)" fill-opacity="1.0" font-size="10">b</text>
<text x="128" y="28" font-family="monospace" fill="rgb(0,0,0)" fill-opacity="1.0" font-size="10">2</text>
<text x="48" y="60" font-family="monospace" fill="rgb(0,0,0)" fill-opacity="1.0" font-size="10">x</text>
<text x="56" y="60" font-family="monospace" fill="rgb(0,0,0)" fill-opacity="1.0" font-size="10">x</text>
<text x="64" y="60" font-family="monospace" fill="rgb(0,0,0)" fill-opacity="1.0" font-size="10">x</text>
<text x="88" y="60" font-family="monospace" fill="rgb(0,0,0)" fill-opacity="1.0" font-size="10">I</text>
<text x="96" y="60" font-family="monospace" fill="rgb(0,0,0)" fill-opacity="1.0" font-size="10">R</text>
<text x="104" y="60" font-family="monospace" fill="rgb(0,0,0)" fill-opacity="1.0" font-size="10">C</text>
<text x="168" y="60" font-family="monospace" fill="rgb(0,0,0)" fill-opacity="1.0" font-size="10">C</text>
<text x="176" y="60" font-family="monospace" fill="rgb(0,0,0)" fill-opacity="1.0" font-size="10">O</text>
<text x="184" y="60" font-family="monospace" fill="rgb(0,0,0)" fill-opacity="1.0" font-size="10">M</text>
<text x="192" y="60" font-family="monospace" fill="rgb(0,0,0)" fill-opacity="1.0" font-size="10">M</text>
<text x="200" y="60" font-family="monospace" fill="rgb(0,0,0)" fill-opacity="1.0" font-size="10">O</text>
<text x="208" y="60" font-family="monospace" fill="rgb(0,0,0)" fill-opacity="1.0" font-size="10">N</text>
<text x="224" y="60" font-family="monospace" fill="rgb(0,0,0)" fill-opacity="1.0" font-size="10">I</text>
<text x="232" y="60" font-family="monospace" fill="rgb(0,0,0)" fill-opacity="1.0" font-size="10">C</text>
<text x="240" y="60" font-family="monospace" fill="rgb(0,0,0)" fill-opacity="1.0" font-size="10">Q</text>
<text x="264" y="60" font-family="monospace" fill="rgb(0,0,0)" fill-opacity="1.0" font-size="10">y</text>
<text x="272" y="60" font-family="monospace" fill="rgb(0,0,0)" fill-opacity="1.0" font-size="10">y</text>
<text x="280" y="60" font-family="monospace" fill="rgb(0,0,0)" fill-opacity="1.0" font-size="10">y</text>
<text x="136" y="124" font-family="monospace" fill="rgb(0,0,0)" fill-opacity="1.0" font-size="10">G</text>
<text x="144" y="124" font-family="monospace" fill="rgb(0,0,0)" fill-opacity="1.0" font-size="10">U</text>
<text x="152" y="124" font-family="monospace" fill="rgb(0,0,0)" fill-opacity="1.0" font-size="10">I</text>
<text x="168" y="124" font-family="monospace" fill="rgb(0,0,0)" fill-opacity="1.0" font-size="10">(</text>
<text x="176" y="124" font-family="monospace" fill="rgb(0,0,0)" fill-opacity="1.0" font-size="10">g</text>
<text x="184" y="124" font-family="monospace" fill="rgb(0,0,0)" fill-opacity="1.0" font-size="10">t</text>
<text x="192" y="124" font-family="monospace" fill="rgb(0,0,0)" fill-opacity="1.0" font-size="10">k</text>
<text x="200" y="124" font-family="monospace" fill="rgb(0,0,0)" fill-opacity="1.0" font-size="10">/</text>
<text x="208" y="124" font-family="monospace" fill="rgb(0,0,0)" fill-opacity="1.0" font-size="10">g</text>
<text x="216" y="124" font-family="monospace" fill="rgb(0,0,0)" fill-opacity="1.0" font-size="10">n</text>
<text x="224" y="124" font-family="monospace" fill="rgb(0,0,0)" fill-opacity="1.0" font-size="10">o</text>
<text x="232" y="124" font-family="monospace" fill="rgb(0,0,0)" fill-opacity="1.0" font-size="10">m</text>
<text x="240" y="124" font-family="monospace" fill="rgb(0,0,0)" fill-opacity="1.0" font-size="10">e</text>
<text x="248" y="124" font-family="monospace" fill="rgb(0,0,0)" fill-opacity="1.0" font-size="10">,</text>
<text x="264" y="124" font-family="monospace" fill="rgb(0,0,0)" fill-opacity="1.0" font-size="10">q</text>
<text x="272" y="124" font-family="monospace" fill="rgb(0,0,0)" fill-opacity="1.0" font-size="10">t</text>
<text x="280" y="124" font-family="monospace" fill="rgb(0,0,0)" fill-opacity="1.0" font-size="10">/</text>
<text x="288" y="124" font-family="monospace" fill="rgb(0,0,0)" fill-opacity="1.0" font-size="10">k</text>
<text x="296" y="124" font-family="monospace" fill="rgb(0,0,0)" fill-opacity="1.0" font-size="10">d</text>
<text x="304" y="124" font-family="monospace" fill="rgb(0,0,0)" fill-opacity="1.0" font-size="10">e</text>
<text x="312" y="124" font-family="monospace" fill="rgb(0,0,0)" fill-opacity="1.0" font-size="10">,</text>
<text x="328" y="124" font-family="monospace" fill="rgb(0,0,0)" fill-opacity="1.0" font-size="10">t</text>
<text x="336" y="124" font-family="monospace" fill="rgb(0,0,0)" fill-opacity="1.0" font-size="10">e</text>
<text x="344" y="124" font-family="monospace" fill="rgb(0,0,0)" fill-opacity="1.0" font-size="10">x</text>
<text x="352" y="124" font-family="monospace" fill="rgb(0,0,0)" fill-opacity="1.0" font-size="10">t</text>
<text x="360" y="124" font-family="monospace" fill="rgb(0,0,0)" fill-opacity="1.0" font-size="10">,</text>
<text x="376" y="124" font-family="monospace" fill="rgb(0,0,0)" fill-opacity="1.0" font-size="10">n</text>
<text x="384" y="124" font-family="monospace" fill="rgb(0,0,0)" fill-opacity="1.0" font-size="10">o</text>
<text x="392" y="124" font-family="monospace" fill="rgb(0,0,0)" fill-opacity="1.0" font-size="10">n</text>
<text x="400" y="124" font-family="monospace" fill="rgb(0,0,0)" fill-opacity="1.0" font-size="10">e</text>
<text x="408" y="124" font-family="monospace" fill="rgb(0,0,0)" fill-opacity="1.0" font-size="10">)</text>
<text x="64" y="156" font-family="monospace" fill="rgb(0,0,0)" fill-opacity="1.0" font-size="10">s</text>
<text x="72" y="156" font-family="monospace" fill="rgb(0,0,0)" fill-opacity="1.0" font-size="10">u</text>
<text x="80" y="156" font-family="monospace" fill="rgb(0,0,0)" fill-opacity="1.0" font-size="10">b</text>
<text x="88" y="156" font-family="monospace" fill="rgb(0,0,0)" fill-opacity="1.0" font-size="10">1</text>
<text x="104" y="156" font-family="monospace" fill="rgb(0,0,0)" fill-opacity="1.0" font-size="10">s</text>
<text x="112" y="156" font-family="monospace" fill="rgb(0,0,0)" fill-opacity="1.0" font-size="10">u</text>
<text x="120" y="156" font-family="monospace" fill="rgb(0,0,0)" fill-opacity="1.0" font-size="10">b</text>
<text x="128" y="156" font-family="monospace" fill="rgb(0,0,0)" fill-opacity="1.0" font-size="10">2</text>
<text x="48" y="188" font-family="monospace" fill="rgb(0,0,0)" fill-opacity="1.0" font-size="10">x</text>
<text x="56" y="188" font-family="monospace" fill="rgb(0,0,0)" fill-opacity="1.0" font-size="10">x</text>
<text x="64" y="188" font-family="monospace" fill="rgb(0,0,0)" fill-opacity="1.0" font-size="10">x</text>
<text x="88" y="188" font-family="monospace" fill="rgb(0,0,0)" fill-opacity="1.0" font-size="10">I</text>
<text x="96" y="188" font-family="monospace" fill="rgb(0,0,0)" fill-opacity="1.0" font-size="10">R</text>
<text x="104" y="188" font-family="monospace" fill="rgb(0,0,0)" fill-opacity="1.0" font-size="10">C</text>
<text x="168" y="188" font-family="monospace" fill="rgb(0,0,0)" fill-opacity="1.0" font-size="10">C</text>
<text x="176" y="188" font-family="monospace" fill="rgb(0,0,0)" fill-opacity="1.0" font-size="10">O</text>
<text x="184" y="188" font-family="monospace" fill="rgb(0,0,0)" fill-opacity="1.0" font-size="10">M</text>
<text x="192" y="188" font-family="monospace" fill="rgb(0,0,0)" fill-opacity="1.0" font-size="10">M</text>
<text x="200" y="188" font-family="monospace" fill="rgb(0,0,0)" fill-opacity="1.0" font-size="10">O</text>
<text x="208" y="188" font-family="monospace" fill="rgb(0,0,0)" fill-opacity="1.0" font-size="10">N</text>
<text x="224" y="188" font-family="monospace" fill="rgb(0,0,0)" fill-opacity="1.0" font-size="10">I</text>
<text x="232" y="188" font-family="monospace" fill="rgb(0,0,0)" fill-opacity="1.0" font-size="10">C</text>
<text x="240" y="188" font-family="monospace" fill="rgb(0,0,0)" fill-opacity="1.0" font-size="10">Q</text>
<text x="264" y="188" font-family="monospace" fill="rgb(0,0,0)" fill-opacity="1.0" font-size="10">y</text>
<text x="272" y="188" font-family="monospace" fill="rgb(0,0,0)" fill-opacity="1.0" font-size="10">y</text>
<text x="280" y="188" font-family="monospace" fill="rgb(0,0,0)" fill-opacity="1.0" font-size="10">y</text>
<text x="56" y="204" font-family="monospace" fill="rgb(0,0,0)" fill-opacity="1.0" font-size="10">'</text>
<text x="272" y="204" font-family="monospace" fill="rgb(0,0,0)" fill-opacity="1.0" font-size="10">'</text>
<text x="112" y="236" font-family="monospace" fill="rgb(0,0,0)" fill-opacity="1.0" font-size="10">C</text>
<text x="120" y="236" font-family="monospace" fill="rgb(0,0,0)" fill-opacity="1.0" font-size="10">O</text>
<text x="128" y="236" font-family="monospace" fill="rgb(0,0,0)" fill-opacity="1.0" font-size="10">M</text>
<text x="136" y="236" font-family="monospace" fill="rgb(0,0,0)" fill-opacity="1.0" font-size="10">M</text>
<text x="144" y="236" font-family="monospace" fill="rgb(0,0,0)" fill-opacity="1.0" font-size="10">O</text>
<text x="152" y="236" font-family="monospace" fill="rgb(0,0,0)" fill-opacity="1.0" font-size="10">N</text>
<text x="168" y="236" font-family="monospace" fill="rgb(0,0,0)" fill-opacity="1.0" font-size="10">U</text>
<text x="176" y="236" font-family="monospace" fill="rgb(0,0,0)" fill-opacity="1.0" font-size="10">I</text>
<text x="64" y="268" font-family="monospace" fill="rgb(0,0,0)" fill-opacity="1.0" font-size="10">s</text>
<text x="72" y="268" font-family="monospace" fill="rgb(0,0,0)" fill-opacity="1.0" font-size="10">u</text>
<text x="80" y="268" font-family="monospace" fill="rgb(0,0,0)" fill-opacity="1.0" font-size="10">b</text>
<text x="88" y="268" font-family="monospace" fill="rgb(0,0,0)" fill-opacity="1.0" font-size="10">1</text>
<text x="104" y="268" font-family="monospace" fill="rgb(0,0,0)" fill-opacity="1.0" font-size="10">s</text>
<text x="112" y="268" font-family="monospace" fill="rgb(0,0,0)" fill-opacity="1.0" font-size="10">u</text>
<text x="120" y="268" font-family="monospace" fill="rgb(0,0,0)" fill-opacity="1.0" font-size="10">b</text>
<text x="128" y="268" font-family="monospace" fill="rgb(0,0,0)" fill-opacity="1.0" font-size="10">2</text>
<text x="48" y="300" font-family="monospace" fill="rgb(0,0,0)" fill-opacity="1.0" font-size="10">x</text>
<text x="56" y="300" font-family="monospace" fill="rgb(0,0,0)" fill-opacity="1.0" font-size="10">x</text>
<text x="64" y="300" font-family="monospace" fill="rgb(0,0,0)" fill-opacity="1.0" font-size="10">x</text>
<text x="88" y="300" font-family="monospace" fill="rgb(0,0,0)" fill-opacity="1.0" font-size="10">I</text>
<text x="96" y="300" font-family="monospace" fill="rgb(0,0,0)" fill-opacity="1.0" font-size="10">R</text>
<text x="104" y="300" font-family="monospace" fill="rgb(0,0,0)" fill-opacity="1.0" font-size="10">C</text>
<text x="184" y="300" font-family="monospace" fill="rgb(0,0,0)" fill-opacity="1.0" font-size="10">I</text>
<text x="192" y="300" font-family="monospace" fill="rgb(0,0,0)" fill-opacity="1.0" font-size="10">C</text>
<text x="200" y="300" font-family="monospace" fill="rgb(0,0,0)" fill-opacity="1.0" font-size="10">Q</text>
<text x="224" y="300" font-family="monospace" fill="rgb(0,0,0)" fill-opacity="1.0" font-size="10">y</text>
<text x="232" y="300" font-family="monospace" fill="rgb(0,0,0)" fill-opacity="1.0" font-size="10">y</text>
<text x="240" y="300" font-family="monospace" fill="rgb(0,0,0)" fill-opacity="1.0" font-size="10">y</text>
<text x="128" y="364" font-family="monospace" fill="rgb(0,0,0)" fill-opacity="1.0" font-size="10">C</text>
<text x="136" y="364" font-family="monospace" fill="rgb(0,0,0)" fill-opacity="1.0" font-size="10">O</text>
<text x="144" y="364" font-family="monospace" fill="rgb(0,0,0)" fill-opacity="1.0" font-size="10">R</text>
<text x="152" y="364" font-family="monospace" fill="rgb(0,0,0)" fill-opacity="1.0" font-size="10">E</text>
<text x="56" y="396" font-family="monospace" fill="rgb(0,0,0)" fill-opacity="1.0" font-size="10">l</text>
<text x="64" y="396" font-family="monospace" fill="rgb(0,0,0)" fill-opacity="1.0" font-size="10">i</text>
<text x="72" y="396" font-family="monospace" fill="rgb(0,0,0)" fill-opacity="1.0" font-size="10">b</text>
<text x="80" y="396" font-family="monospace" fill="rgb(0,0,0)" fill-opacity="1.0" font-size="10">-</text>
<text x="88" y="396" font-family="monospace" fill="rgb(0,0,0)" fill-opacity="1.0" font-size="10">c</text>
<text x="96" y="396" font-family="monospace" fill="rgb(0,0,0)" fill-opacity="1.0" font-size="10">o</text>
<text x="104" y="396" font-family="monospace" fill="rgb(0,0,0)" fill-opacity="1.0" font-size="10">n</text>
<text x="112" y="396" font-family="monospace" fill="rgb(0,0,0)" fill-opacity="1.0" font-size="10">f</text>
<text x="120" y="396" font-family="monospace" fill="rgb(0,0,0)" fill-opacity="1.0" font-size="10">i</text>
<text x="128" y="396" font-family="monospace" fill="rgb(0,0,0)" fill-opacity="1.0" font-size="10">g</text>
</svg>
